<svg width="685" height="260" viewBox="0 0 685 260" fill="none" xmlns="http://www.w3.org/2000/svg">
<path d="M0 35.0029L14.2708 24.3029C28.5417 14.0029 57.0833 -7.99714 85.625 3.00286C114.167 14.0029 142.708 56.0029 171.25 99.0029C199.792 142.003 228.333 184.003 256.875 179.003C285.417 174.003 313.958 120.003 342.5 88.3029C371.042 56.0029 399.583 46.0029 428.125 72.3029C456.667 99.0029 485.208 163.003 513.75 168.303C542.292 174.003 570.833 120.003 599.375 125.703C627.917 131.003 656.458 195.003 670.729 227.003L685 259.003H670.729C656.458 259.003 627.917 259.003 599.375 259.003C570.833 259.003 542.292 259.003 513.75 259.003C485.208 259.003 456.667 259.003 428.125 259.003C399.583 259.003 371.042 259.003 342.5 259.003C313.958 259.003 285.417 259.003 256.875 259.003C228.333 259.003 199.792 259.003 171.25 259.003C142.708 259.003 114.167 259.003 85.625 259.003C57.0833 259.003 28.5417 259.003 14.2708 259.003H0V35.0029Z" fill="#3F3D56" fill-opacity="0.03"/>
</svg>
