<svg width="1440" height="260" viewBox="0 0 1440 260" fill="none" xmlns="http://www.w3.org/2000/svg">
<path d="M-24 35.0029L19.4167 24.3029C62.8333 14.0029 149.667 -7.99714 236.5 3.00286C323.333 14.0029 410.167 56.0029 497 99.0029C583.833 142.003 670.667 184.003 757.5 179.003C844.333 174.003 931.167 120.003 1018 88.3029C1104.83 56.0029 1191.67 46.0029 1278.5 72.3029C1365.33 99.0029 1452.17 163.003 1539 168.303C1625.83 174.003 1712.67 120.003 1799.5 125.703C1886.33 131.003 1973.17 195.003 2016.58 227.003L2060 259.003H2016.58C1973.17 259.003 1886.33 259.003 1799.5 259.003C1712.67 259.003 1625.83 259.003 1539 259.003C1452.17 259.003 1365.33 259.003 1278.5 259.003C1191.67 259.003 1104.83 259.003 1018 259.003C931.167 259.003 844.333 259.003 757.5 259.003C670.667 259.003 583.833 259.003 497 259.003C410.167 259.003 323.333 259.003 236.5 259.003C149.667 259.003 62.8333 259.003 19.4167 259.003H-24V35.0029Z" fill="white" fill-opacity="0.02"/>
</svg>
