<svg width="188" height="212" viewBox="0 0 188 212" fill="none" xmlns="http://www.w3.org/2000/svg">
<path d="M90.9676 30.9888C92.4617 30.3567 94.1482 30.3566 95.6424 30.9885L136.966 48.4641C139.186 49.403 140.629 51.5796 140.629 53.9903V111.681C140.629 114.148 139.118 116.364 136.822 117.266L95.4985 133.493C94.0885 134.047 92.5213 134.047 91.1115 133.493L49.8061 117.266C47.51 116.364 46 114.148 46 111.681V53.9896C46 51.5793 47.4424 49.403 49.6622 48.4638L90.9676 30.9888Z" fill="#0CC04B"/>
<path d="M84.8 80.54C84.8 82.66 84.4467 84.6267 83.74 86.44C83.0467 88.24 82.06 89.8 80.78 91.12C79.5 92.44 77.96 93.4733 76.16 94.22C74.36 94.9533 72.36 95.32 70.16 95.32C67.9733 95.32 65.98 94.9533 64.18 94.22C62.38 93.4733 60.8333 92.44 59.54 91.12C58.26 89.8 57.2667 88.24 56.56 86.44C55.8533 84.6267 55.5 82.66 55.5 80.54C55.5 78.42 55.8533 76.46 56.56 74.66C57.2667 72.8467 58.26 71.28 59.54 69.96C60.8333 68.64 62.38 67.6133 64.18 66.88C65.98 66.1333 67.9733 65.76 70.16 65.76C71.6267 65.76 73.0067 65.9333 74.3 66.28C75.5933 66.6133 76.78 67.0933 77.86 67.72C78.94 68.3333 79.9067 69.0867 80.76 69.98C81.6267 70.86 82.36 71.8467 82.96 72.94C83.56 74.0333 84.0133 75.22 84.32 76.5C84.64 77.78 84.8 79.1267 84.8 80.54ZM79.3 80.54C79.3 78.9533 79.0867 77.5333 78.66 76.28C78.2333 75.0133 77.6267 73.94 76.84 73.06C76.0533 72.18 75.0933 71.5067 73.96 71.04C72.84 70.5733 71.5733 70.34 70.16 70.34C68.7467 70.34 67.4733 70.5733 66.34 71.04C65.22 71.5067 64.26 72.18 63.46 73.06C62.6733 73.94 62.0667 75.0133 61.64 76.28C61.2133 77.5333 61 78.9533 61 80.54C61 82.1267 61.2133 83.5533 61.64 84.82C62.0667 86.0733 62.6733 87.14 63.46 88.02C64.26 88.8867 65.22 89.5533 66.34 90.02C67.4733 90.4867 68.7467 90.72 70.16 90.72C71.5733 90.72 72.84 90.4867 73.96 90.02C75.0933 89.5533 76.0533 88.8867 76.84 88.02C77.6267 87.14 78.2333 86.0733 78.66 84.82C79.0867 83.5533 79.3 82.1267 79.3 80.54ZM92.0447 82.46C92.0447 85.2067 92.378 87.9067 93.0447 90.56C93.7114 93.2133 94.6647 95.7067 95.9047 98.04C96.038 98.3067 96.1114 98.54 96.1247 98.74C96.1514 98.9533 96.138 99.1333 96.0847 99.28C96.0314 99.44 95.9447 99.5733 95.8247 99.68C95.718 99.8 95.598 99.9 95.4647 99.98L93.2647 101.32C92.278 99.8 91.438 98.2733 90.7447 96.74C90.0514 95.2067 89.4847 93.66 89.0447 92.1C88.6047 90.54 88.278 88.96 88.0647 87.36C87.8647 85.76 87.7647 84.1267 87.7647 82.46C87.7647 80.7933 87.8647 79.16 88.0647 77.56C88.278 75.9467 88.6047 74.36 89.0447 72.8C89.4847 71.24 90.0514 69.7 90.7447 68.18C91.438 66.6467 92.278 65.12 93.2647 63.6L95.4647 64.92C95.598 65 95.718 65.1 95.8247 65.22C95.9447 65.3267 96.0314 65.46 96.0847 65.62C96.138 65.7667 96.1514 65.9467 96.1247 66.16C96.1114 66.36 96.038 66.6 95.9047 66.88C94.6647 69.2 93.7114 71.6933 93.0447 74.36C92.378 77.0133 92.0447 79.7133 92.0447 82.46ZM104.185 77C104.598 76.5867 105.032 76.2067 105.485 75.86C105.952 75.5 106.438 75.2 106.945 74.96C107.465 74.7067 108.018 74.5133 108.605 74.38C109.192 74.2333 109.832 74.16 110.525 74.16C111.645 74.16 112.638 74.3533 113.505 74.74C114.372 75.1133 115.092 75.6467 115.665 76.34C116.252 77.02 116.692 77.84 116.985 78.8C117.292 79.7467 117.445 80.7933 117.445 81.94V95H112.505V81.94C112.505 80.6867 112.218 79.72 111.645 79.04C111.072 78.3467 110.198 78 109.025 78C108.172 78 107.372 78.1933 106.625 78.58C105.878 78.9667 105.172 79.4933 104.505 80.16V95H99.565V74.48H102.585C103.225 74.48 103.645 74.78 103.845 75.38L104.185 77ZM124.259 82.46C124.259 79.7133 123.926 77.0133 123.259 74.36C122.606 71.6933 121.659 69.2 120.419 66.88C120.272 66.6 120.186 66.36 120.159 66.16C120.146 65.9467 120.166 65.7667 120.219 65.62C120.272 65.46 120.352 65.3267 120.459 65.22C120.579 65.1 120.712 65 120.859 64.92L123.059 63.6C124.046 65.12 124.886 66.6467 125.579 68.18C126.272 69.7 126.839 71.24 127.279 72.8C127.719 74.36 128.039 75.9467 128.239 77.56C128.439 79.16 128.539 80.7933 128.539 82.46C128.539 84.1267 128.439 85.76 128.239 87.36C128.039 88.96 127.719 90.54 127.279 92.1C126.839 93.66 126.272 95.2067 125.579 96.74C124.886 98.2733 124.046 99.8 123.059 101.32L120.859 99.98C120.712 99.9 120.579 99.8 120.459 99.68C120.352 99.5733 120.272 99.44 120.219 99.28C120.166 99.1333 120.146 98.9533 120.159 98.74C120.186 98.54 120.272 98.3067 120.419 98.04C121.659 95.7067 122.606 93.2133 123.259 90.56C123.926 87.9067 124.259 85.2067 124.259 82.46Z" fill="white"/>
<path d="M83.74 86.44L83.2741 86.2584L83.2734 86.2603L83.74 86.44ZM80.78 91.12L81.139 91.4681L81.139 91.4681L80.78 91.12ZM76.16 94.22L76.3487 94.6831L76.3516 94.6818L76.16 94.22ZM64.18 94.22L63.9884 94.6819L63.9914 94.683L64.18 94.22ZM59.54 91.12L59.181 91.4681L59.1829 91.4699L59.54 91.12ZM56.56 86.44L56.0941 86.6216L56.0946 86.6227L56.56 86.44ZM56.56 74.66L57.0254 74.8427L57.0259 74.8416L56.56 74.66ZM59.54 69.96L59.1829 69.6101L59.181 69.6119L59.54 69.96ZM64.18 66.88L64.3687 67.3431L64.3716 67.3418L64.18 66.88ZM74.3 66.28L74.1705 66.763L74.1752 66.7642L74.3 66.28ZM77.86 67.72L77.6091 68.1525L77.6131 68.1548L77.86 67.72ZM80.76 69.98L80.3984 70.3254L80.4038 70.3308L80.76 69.98ZM84.32 76.5L83.8337 76.6165L83.8349 76.6213L84.32 76.5ZM78.66 76.28L78.1862 76.4396L78.1867 76.4411L78.66 76.28ZM76.84 73.06L76.4672 73.3932L76.4672 73.3932L76.84 73.06ZM73.96 71.04L73.7677 71.5015L73.7696 71.5023L73.96 71.04ZM66.34 71.04L66.1496 70.5777L66.1477 70.5785L66.34 71.04ZM63.46 73.06L63.09 72.7237L63.0872 72.7268L63.46 73.06ZM61.64 76.28L62.1133 76.4411L62.1138 76.4396L61.64 76.28ZM61.64 84.82L61.1662 84.9796L61.1667 84.9811L61.64 84.82ZM63.46 88.02L63.0872 88.3533L63.0926 88.3591L63.46 88.02ZM66.34 90.02L66.1477 90.4815L66.1496 90.4823L66.34 90.02ZM73.96 90.02L73.7696 89.5577L73.7677 89.5585L73.96 90.02ZM76.84 88.02L77.2102 88.3561L77.2128 88.3532L76.84 88.02ZM78.66 84.82L79.1333 84.9811L79.1338 84.9796L78.66 84.82ZM84.3 80.54C84.3 82.6035 83.9563 84.508 83.2741 86.2584L84.2059 86.6216C84.937 84.7454 85.3 82.7165 85.3 80.54H84.3ZM83.2734 86.2603C82.6031 88.0006 81.6519 89.5026 80.4211 90.7719L81.139 91.4681C82.4681 90.0974 83.4903 88.4794 84.2066 86.6197L83.2734 86.2603ZM80.4211 90.7719C79.1913 92.0401 77.7093 93.036 75.9684 93.7582L76.3516 94.6818C78.2107 93.9106 79.8087 92.8399 81.139 91.4681L80.4211 90.7719ZM75.9714 93.757C74.2386 94.4629 72.3038 94.82 70.16 94.82V95.82C72.4162 95.82 74.4814 95.4438 76.3486 94.683L75.9714 93.757ZM70.16 94.82C68.03 94.82 66.1017 94.463 64.3686 93.757L63.9914 94.683C65.8583 95.4437 67.9167 95.82 70.16 95.82V94.82ZM64.3716 93.7582C62.6303 93.0358 61.1408 92.0394 59.8971 90.7701L59.1829 91.4699C60.5258 92.8406 62.1297 93.9108 63.9884 94.6818L64.3716 93.7582ZM59.899 90.7719C58.6674 89.5019 57.7092 87.9989 57.0254 86.2573L56.0946 86.6227C56.8242 88.4811 57.8526 90.0981 59.181 91.4681L59.899 90.7719ZM57.0259 86.2584C56.3437 84.508 56 82.6035 56 80.54H55C55 82.7165 55.363 84.7454 56.0941 86.6216L57.0259 86.2584ZM56 80.54C56 78.4765 56.3437 76.5791 57.0254 74.8427L56.0946 74.4773C55.363 76.3409 55 78.3635 55 80.54H56ZM57.0259 74.8416C57.7098 73.0866 58.668 71.5775 59.899 70.3081L59.181 69.6119C57.852 70.9825 56.8235 72.6067 56.0941 74.4784L57.0259 74.8416ZM59.8971 70.3099C61.1402 69.0413 62.6286 68.0519 64.3686 67.343L63.9914 66.417C62.1314 67.1747 60.5265 68.2387 59.1829 69.6101L59.8971 70.3099ZM64.3716 67.3418C66.1039 66.6233 68.0311 66.26 70.16 66.26V65.26C67.9156 65.26 65.8561 65.6434 63.9884 66.4182L64.3716 67.3418ZM70.16 66.26C71.5871 66.26 72.9232 66.4286 74.1706 66.7629L74.4295 65.797C73.0901 65.438 71.6663 65.26 70.16 65.26V66.26ZM74.1752 66.7642C75.4274 67.0869 76.5712 67.5503 77.6091 68.1525L78.1109 67.2875C76.9888 66.6364 75.7593 66.1398 74.4248 65.7958L74.1752 66.7642ZM77.6131 68.1548C78.651 68.7442 79.5789 69.4675 80.3984 70.3254L81.1216 69.6346C80.2344 68.7059 79.2291 67.9225 78.1069 67.2852L77.6131 68.1548ZM80.4038 70.3308C81.2378 71.1777 81.9436 72.1272 82.5217 73.1805L83.3983 72.6995C82.7764 71.5661 82.0155 70.5423 81.1162 69.6292L80.4038 70.3308ZM82.5217 73.1805C83.0991 74.2327 83.5369 75.3774 83.8338 76.6165L84.8062 76.3835C84.4898 75.0626 84.0209 73.8339 83.3983 72.6995L82.5217 73.1805ZM83.8349 76.6213C84.1443 77.8589 84.3 79.1647 84.3 80.54H85.3C85.3 79.0887 85.1357 77.7011 84.8051 76.3787L83.8349 76.6213ZM79.8 80.54C79.8 78.9091 79.5808 77.4332 79.1333 76.1189L78.1867 76.4411C78.5926 77.6335 78.8 78.9976 78.8 80.54H79.8ZM79.1338 76.1204C78.6884 74.7981 78.0501 73.6635 77.2128 72.7268L76.4672 73.3932C77.2032 74.2165 77.7782 75.2286 78.1862 76.4396L79.1338 76.1204ZM77.2128 72.7268C76.3739 71.7883 75.3507 71.0719 74.1504 70.5777L73.7696 71.5023C74.836 71.9414 75.7328 72.5717 76.4672 73.3932L77.2128 72.7268ZM74.1523 70.5785C72.9622 70.0826 71.6286 69.84 70.16 69.84V70.84C71.5181 70.84 72.7178 71.0641 73.7677 71.5015L74.1523 70.5785ZM70.16 69.84C68.6913 69.84 67.3519 70.0826 66.1496 70.5777L66.5304 71.5023C67.5948 71.064 68.8021 70.84 70.16 70.84V69.84ZM66.1477 70.5785C64.9614 71.0727 63.9404 71.7883 63.09 72.7237L63.83 73.3963C64.5796 72.5717 65.4786 71.9406 66.5323 71.5015L66.1477 70.5785ZM63.0872 72.7268C62.2499 73.6635 61.6116 74.7981 61.1662 76.1204L62.1138 76.4396C62.5218 75.2286 63.0968 74.2165 63.8328 73.3932L63.0872 72.7268ZM61.1667 76.1189C60.7192 77.4332 60.5 78.9091 60.5 80.54H61.5C61.5 78.9976 61.7074 77.6335 62.1133 76.4411L61.1667 76.1189ZM60.5 80.54C60.5 82.1711 60.7193 83.6529 61.1662 84.9796L62.1138 84.6604C61.7074 83.4537 61.5 82.0823 61.5 80.54H60.5ZM61.1667 84.9811C61.6123 86.2903 62.2507 87.4174 63.0872 88.3532L63.8328 87.6868C63.096 86.8626 62.521 85.8564 62.1133 84.6589L61.1667 84.9811ZM63.0926 88.3591C63.9429 89.2803 64.9632 89.988 66.1477 90.4815L66.5323 89.5585C65.4768 89.1187 64.5771 88.493 63.8274 87.6809L63.0926 88.3591ZM66.1496 90.4823C67.3519 90.9774 68.6913 91.22 70.16 91.22V90.22C68.8021 90.22 67.5948 89.996 66.5304 89.5577L66.1496 90.4823ZM70.16 91.22C71.6286 91.22 72.9622 90.9774 74.1523 90.4815L73.7677 89.5585C72.7178 89.9959 71.5181 90.22 70.16 90.22V91.22ZM74.1504 90.4823C75.349 89.9888 76.3714 89.2802 77.2102 88.3561L76.4698 87.6839C75.7353 88.4931 74.8377 89.1179 73.7696 89.5577L74.1504 90.4823ZM77.2128 88.3532C78.0493 87.4174 78.6877 86.2903 79.1333 84.9811L78.1867 84.6589C77.779 85.8564 77.204 86.8626 76.4672 87.6868L77.2128 88.3532ZM79.1338 84.9796C79.5807 83.6529 79.8 82.1711 79.8 80.54H78.8C78.8 82.0823 78.5926 83.4537 78.1862 84.6604L79.1338 84.9796ZM95.9047 98.04L96.352 97.8163L96.3462 97.8054L95.9047 98.04ZM96.1247 98.74L95.6258 98.7733L95.6268 98.7877L95.6285 98.802L96.1247 98.74ZM96.0847 99.28L95.6146 99.1091L95.6103 99.1219L96.0847 99.28ZM95.8247 99.68L95.4925 99.3063L95.4705 99.3258L95.451 99.3478L95.8247 99.68ZM95.4647 99.98L95.2074 99.5512L95.2046 99.553L95.4647 99.98ZM93.2647 101.32L92.8453 101.592L93.1098 102L93.5248 101.747L93.2647 101.32ZM90.7447 96.74L91.2003 96.534L91.2003 96.534L90.7447 96.74ZM89.0447 92.1L89.5259 91.9643L89.5259 91.9643L89.0447 92.1ZM88.0647 87.36L87.5685 87.422L87.5691 87.4261L88.0647 87.36ZM88.0647 77.56L87.569 77.4945L87.5685 77.498L88.0647 77.56ZM89.0447 72.8L89.5259 72.9357L89.5259 72.9357L89.0447 72.8ZM90.7447 68.18L91.1996 68.3875L91.2003 68.386L90.7447 68.18ZM93.2647 63.6L93.5219 63.1713L93.1081 62.9229L92.8453 63.3278L93.2647 63.6ZM95.4647 64.92L95.7219 64.4913L95.7219 64.4913L95.4647 64.92ZM95.8247 65.22L95.451 65.5522L95.4705 65.5742L95.4925 65.5937L95.8247 65.22ZM96.0847 65.62L95.6102 65.7782L95.6148 65.7909L96.0847 65.62ZM96.1247 66.16L95.6285 66.098L95.6268 66.1123L95.6258 66.1267L96.1247 66.16ZM95.9047 66.88L96.3457 67.1157L96.3511 67.1054L96.3561 67.095L95.9047 66.88ZM93.0447 74.36L93.5296 74.4818L93.5298 74.4813L93.0447 74.36ZM91.5447 82.46C91.5447 85.2476 91.883 87.9885 92.5598 90.6818L93.5296 90.4382C92.873 87.8248 92.5447 85.1658 92.5447 82.46H91.5447ZM92.5598 90.6818C93.2359 93.373 94.2035 95.9044 95.4632 98.2746L96.3462 97.8054C95.1258 95.509 94.1868 93.0537 93.5296 90.4382L92.5598 90.6818ZM95.4575 98.2636C95.5743 98.4972 95.6185 98.6636 95.6258 98.7733L96.6236 98.7067C96.6042 98.4164 96.5018 98.1161 96.3519 97.8164L95.4575 98.2636ZM95.6285 98.802C95.6489 98.9648 95.6328 99.0596 95.6148 99.1091L96.5546 99.4509C96.6432 99.2071 96.6538 98.9418 96.6208 98.678L95.6285 98.802ZM95.6103 99.1219C95.5833 99.2032 95.5437 99.2608 95.4925 99.3063L96.1569 100.054C96.3457 99.8859 96.4795 99.6768 96.559 99.4381L95.6103 99.1219ZM95.451 99.3478C95.3769 99.4312 95.2959 99.4982 95.2074 99.5513L95.7219 100.409C95.9002 100.302 96.0591 100.169 96.1984 100.012L95.451 99.3478ZM95.2046 99.553L93.0046 100.893L93.5248 101.747L95.7248 100.407L95.2046 99.553ZM93.6841 101.048C92.7101 99.5473 91.8825 98.0427 91.2003 96.534L90.2891 96.946C90.9936 98.504 91.846 100.053 92.8453 101.592L93.6841 101.048ZM91.2003 96.534C90.5168 95.0225 89.9589 93.4993 89.5259 91.9643L88.5635 92.2357C89.0105 93.8207 89.5859 95.3908 90.2891 96.946L91.2003 96.534ZM89.5259 91.9643C89.0923 90.427 88.7705 88.8703 88.5603 87.2939L87.5691 87.4261C87.7856 89.0497 88.117 90.653 88.5635 92.2357L89.5259 91.9643ZM88.5608 87.298C88.3635 85.7192 88.2647 84.1066 88.2647 82.46H87.2647C87.2647 84.1467 87.3659 85.8008 87.5685 87.422L88.5608 87.298ZM88.2647 82.46C88.2647 80.8134 88.3635 79.2008 88.5608 77.622L87.5685 77.498C87.3659 79.1192 87.2647 80.7733 87.2647 82.46H88.2647ZM88.5604 77.6255C88.7706 76.0358 89.0924 74.4726 89.5259 72.9357L88.5635 72.6643C88.1169 74.2474 87.7855 75.8575 87.569 77.4945L88.5604 77.6255ZM89.5259 72.9357C89.9588 71.401 90.5165 69.885 91.1996 68.3875L90.2898 67.9725C89.5862 69.515 89.0106 71.079 88.5635 72.6643L89.5259 72.9357ZM91.2003 68.386C91.8825 66.8773 92.7101 65.3727 93.6841 63.8722L92.8453 63.3278C91.846 64.8673 90.9936 66.416 90.2891 67.974L91.2003 68.386ZM93.0074 64.0287L95.2074 65.3487L95.7219 64.4913L93.5219 63.1713L93.0074 64.0287ZM95.2074 65.3487C95.2959 65.4018 95.3769 65.4688 95.451 65.5522L96.1984 64.8878C96.0591 64.7312 95.9002 64.5982 95.7219 64.4913L95.2074 65.3487ZM95.4925 65.5937C95.5437 65.6392 95.5833 65.6968 95.6103 65.7781L96.559 65.4619C96.4795 65.2232 96.3457 65.0141 96.1569 64.8463L95.4925 65.5937ZM95.6148 65.7909C95.6328 65.8404 95.6489 65.9352 95.6285 66.098L96.6208 66.222C96.6538 65.9582 96.6432 65.6929 96.5546 65.4491L95.6148 65.7909ZM95.6258 66.1267C95.6183 66.2389 95.5727 66.4142 95.4533 66.665L96.3561 67.095C96.5033 66.7858 96.6044 66.4811 96.6236 66.1933L95.6258 66.1267ZM95.4637 66.6443C94.2035 69.0021 93.2358 71.534 92.5596 74.2387L93.5298 74.4813C94.1869 71.8526 95.1258 69.3979 96.3457 67.1157L95.4637 66.6443ZM92.5598 74.2382C91.883 76.9315 91.5447 79.6724 91.5447 82.46H92.5447C92.5447 79.7542 92.873 77.0952 93.5296 74.4818L92.5598 74.2382ZM104.185 77L103.696 77.1027L103.885 78.0067L104.539 77.3536L104.185 77ZM105.485 75.86L105.789 76.2572L105.79 76.2559L105.485 75.86ZM106.945 74.96L107.159 75.4119L107.164 75.4095L106.945 74.96ZM108.605 74.38L108.716 74.8677L108.726 74.8651L108.605 74.38ZM113.505 74.74L113.301 75.1967L113.307 75.1992L113.505 74.74ZM115.665 76.34L115.28 76.6587L115.286 76.6666L115.665 76.34ZM116.985 78.8L116.507 78.9461L116.509 78.9541L116.985 78.8ZM117.445 95V95.5H117.945V95H117.445ZM112.505 95H112.005V95.5H112.505V95ZM111.645 79.04L111.26 79.3586L111.263 79.3623L111.645 79.04ZM106.625 78.58L106.395 78.136L106.625 78.58ZM104.505 80.16L104.151 79.8064L104.005 79.9529V80.16H104.505ZM104.505 95V95.5H105.005V95H104.505ZM99.565 95H99.065V95.5H99.565V95ZM99.565 74.48V73.98H99.065V74.48H99.565ZM103.845 75.38L104.334 75.2773L104.328 75.2492L104.319 75.2219L103.845 75.38ZM104.539 77.3536C104.937 76.9555 105.353 76.5901 105.789 76.2572L105.181 75.4628C104.71 75.8232 104.26 76.2179 103.831 76.6464L104.539 77.3536ZM105.79 76.2559C106.23 75.9167 106.686 75.6358 107.159 75.4119L106.731 74.5081C106.19 74.7642 105.673 75.0833 105.18 75.4641L105.79 76.2559ZM107.164 75.4095C107.648 75.1736 108.165 74.9927 108.716 74.8676L108.494 73.8924C107.872 74.0339 107.282 74.2397 106.726 74.5105L107.164 75.4095ZM108.726 74.8651C109.268 74.7296 109.867 74.66 110.525 74.66V73.66C109.797 73.66 109.115 73.737 108.484 73.8949L108.726 74.8651ZM110.525 74.66C111.587 74.66 112.509 74.8432 113.301 75.1966L113.709 74.2834C112.767 73.8634 111.703 73.66 110.525 73.66V74.66ZM113.307 75.1992C114.105 75.5428 114.759 76.0294 115.28 76.6586L116.05 76.0214C115.424 75.264 114.639 74.6839 113.703 74.2808L113.307 75.1992ZM115.286 76.6666C115.823 77.2881 116.231 78.0447 116.507 78.9461L117.463 78.6539C117.152 77.6353 116.681 76.7519 116.044 76.0134L115.286 76.6666ZM116.509 78.9541C116.798 79.8441 116.945 80.8378 116.945 81.94H117.945C117.945 80.7488 117.786 79.6493 117.461 78.6459L116.509 78.9541ZM116.945 81.94V95H117.945V81.94H116.945ZM117.445 94.5H112.505V95.5H117.445V94.5ZM113.005 95V81.94H112.005V95H113.005ZM113.005 81.94C113.005 80.6164 112.703 79.5186 112.027 78.7177L111.263 79.3623C111.734 79.9214 112.005 80.7569 112.005 81.94H113.005ZM112.03 78.7214C111.335 77.8803 110.299 77.5 109.025 77.5V78.5C110.098 78.5 110.809 78.8131 111.26 79.3586L112.03 78.7214ZM109.025 77.5C108.093 77.5 107.214 77.712 106.395 78.136L106.855 79.024C107.529 78.6747 108.25 78.5 109.025 78.5V77.5ZM106.395 78.136C105.598 78.549 104.85 79.1078 104.151 79.8064L104.859 80.5136C105.493 79.8789 106.159 79.3844 106.855 79.024L106.395 78.136ZM104.005 80.16V95H105.005V80.16H104.005ZM104.505 94.5H99.565V95.5H104.505V94.5ZM100.065 95V74.48H99.065V95H100.065ZM99.565 74.98H102.585V73.98H99.565V74.98ZM102.585 74.98C102.826 74.98 102.983 75.0357 103.089 75.1119C103.196 75.1877 103.296 75.3154 103.371 75.5381L104.319 75.2219C104.194 74.8446 103.984 74.5223 103.671 74.2981C103.357 74.0743 102.984 73.98 102.585 73.98V74.98ZM103.356 75.4827L103.696 77.1027L104.674 76.8973L104.334 75.2773L103.356 75.4827ZM123.259 74.36L122.773 74.479L122.774 74.4818L123.259 74.36ZM120.419 66.88L119.976 67.112L119.978 67.1157L120.419 66.88ZM120.159 66.16L119.66 66.1912L119.661 66.2087L119.663 66.2261L120.159 66.16ZM120.219 65.62L120.689 65.7909L120.693 65.7781L120.219 65.62ZM120.459 65.22L120.106 64.8664L120.106 64.8664L120.459 65.22ZM120.859 64.92L121.098 65.3589L121.108 65.354L121.116 65.3487L120.859 64.92ZM123.059 63.6L123.478 63.3278L123.216 62.9229L122.802 63.1713L123.059 63.6ZM125.579 68.18L125.123 68.386L125.124 68.3875L125.579 68.18ZM127.279 72.8L126.798 72.9357L126.798 72.9357L127.279 72.8ZM128.239 77.56L127.743 77.6215L127.743 77.622L128.239 77.56ZM128.239 87.36L127.743 87.298L127.743 87.298L128.239 87.36ZM127.279 92.1L127.76 92.2357L127.76 92.2357L127.279 92.1ZM125.579 96.74L126.035 96.946L126.035 96.946L125.579 96.74ZM123.059 101.32L122.799 101.747L123.214 102L123.478 101.592L123.059 101.32ZM120.859 99.98L121.119 99.553L121.109 99.5468L121.098 99.5411L120.859 99.98ZM120.459 99.68L120.813 99.3264L120.459 99.68ZM120.219 99.28L120.694 99.1218L120.689 99.1091L120.219 99.28ZM120.159 98.74L119.663 98.6739L119.661 98.6913L119.66 98.7088L120.159 98.74ZM120.419 98.04L120.857 98.281L120.861 98.2746L120.419 98.04ZM123.259 90.56L122.774 90.4382L122.774 90.4405L123.259 90.56ZM124.759 82.46C124.759 79.6724 124.421 76.9315 123.744 74.2382L122.774 74.4818C123.431 77.0952 123.759 79.7542 123.759 82.46H124.759ZM123.745 74.241C123.082 71.5355 122.121 69.0028 120.86 66.6443L119.978 67.1157C121.198 69.3972 122.13 71.8512 122.773 74.479L123.745 74.241ZM120.862 66.648C120.729 66.3938 120.671 66.2127 120.655 66.0939L119.663 66.2261C119.701 66.5073 119.816 66.8062 119.976 67.112L120.862 66.648ZM120.658 66.1288C120.648 65.9603 120.666 65.8537 120.689 65.7909L119.749 65.4491C119.665 65.6796 119.644 65.933 119.66 66.1912L120.658 66.1288ZM120.693 65.7781C120.725 65.683 120.767 65.6191 120.813 65.5736L120.106 64.8664C119.938 65.0342 119.82 65.237 119.745 65.4619L120.693 65.7781ZM120.813 65.5736C120.899 65.4868 120.994 65.4157 121.098 65.3589L120.62 64.4811C120.43 64.5843 120.259 64.7132 120.106 64.8664L120.813 65.5736ZM121.116 65.3487L123.316 64.0287L122.802 63.1713L120.602 64.4913L121.116 65.3487ZM122.64 63.8722C123.614 65.3727 124.441 66.8773 125.123 68.386L126.035 67.974C125.33 66.416 124.478 64.8673 123.478 63.3278L122.64 63.8722ZM125.124 68.3875C125.807 69.885 126.365 71.401 126.798 72.9357L127.76 72.6643C127.313 71.079 126.738 69.515 126.034 67.9725L125.124 68.3875ZM126.798 72.9357C127.231 74.4713 127.546 76.0332 127.743 77.6215L128.735 77.4985C128.532 75.8601 128.207 74.2487 127.76 72.6643L126.798 72.9357ZM127.743 77.622C127.94 79.2008 128.039 80.8134 128.039 82.46H129.039C129.039 80.7733 128.938 79.1192 128.735 77.498L127.743 77.622ZM128.039 82.46C128.039 84.1066 127.94 85.7192 127.743 87.298L128.735 87.422C128.938 85.8008 129.039 84.1467 129.039 82.46H128.039ZM127.743 87.298C127.546 88.8729 127.231 90.4283 126.798 91.9643L127.76 92.2357C128.207 90.6517 128.532 89.0471 128.735 87.422L127.743 87.298ZM126.798 91.9643C126.365 93.4993 125.807 95.0225 125.123 96.534L126.035 96.946C126.738 95.3908 127.313 93.8207 127.76 92.2357L126.798 91.9643ZM125.123 96.534C124.441 98.0427 123.614 99.5473 122.64 101.048L123.478 101.592C124.478 100.053 125.33 98.504 126.035 96.946L125.123 96.534ZM123.319 100.893L121.119 99.553L120.599 100.407L122.799 101.747L123.319 100.893ZM121.098 99.5411C120.994 99.4843 120.899 99.4132 120.813 99.3264L120.106 100.034C120.259 100.187 120.43 100.316 120.62 100.419L121.098 99.5411ZM120.813 99.3264C120.767 99.2809 120.725 99.217 120.693 99.1219L119.745 99.4381C119.82 99.663 119.938 99.8658 120.106 100.034L120.813 99.3264ZM120.689 99.1091C120.666 99.0463 120.648 98.9397 120.658 98.7712L119.66 98.7088C119.644 98.967 119.665 99.2204 119.749 99.4509L120.689 99.1091ZM120.655 98.8061C120.67 98.6903 120.727 98.5182 120.857 98.281L119.981 97.799C119.818 98.0951 119.701 98.3897 119.663 98.6739L120.655 98.8061ZM120.861 98.2746C122.121 95.9037 123.082 93.3715 123.745 90.6795L122.774 90.4405C122.13 93.0551 121.198 95.5097 119.978 97.8054L120.861 98.2746ZM123.744 90.6818C124.421 87.9885 124.759 85.2476 124.759 82.46H123.759C123.759 85.1658 123.431 87.8248 122.774 90.4382L123.744 90.6818Z" fill="white"/>
<g filter="url(#filter0_b)">
<path d="M67.2058 154.987C67.1178 155.141 67.0225 155.255 66.9198 155.328C66.8245 155.394 66.7035 155.427 66.5568 155.427C66.4028 155.427 66.2342 155.372 66.0508 155.262C65.8748 155.145 65.6622 155.016 65.4128 154.877C65.1635 154.738 64.8702 154.613 64.5328 154.503C64.2028 154.386 63.8105 154.327 63.3558 154.327C62.9452 154.327 62.5858 154.378 62.2778 154.481C61.9698 154.576 61.7095 154.712 61.4968 154.888C61.2915 155.064 61.1375 155.277 61.0348 155.526C60.9322 155.768 60.8808 156.036 60.8808 156.329C60.8808 156.703 60.9835 157.015 61.1888 157.264C61.4015 157.513 61.6802 157.726 62.0248 157.902C62.3695 158.078 62.7618 158.236 63.2018 158.375C63.6418 158.514 64.0928 158.665 64.5548 158.826C65.0168 158.98 65.4678 159.163 65.9078 159.376C66.3478 159.581 66.7402 159.845 67.0848 160.168C67.4295 160.483 67.7045 160.872 67.9098 161.334C68.1225 161.796 68.2288 162.357 68.2288 163.017C68.2288 163.736 68.1042 164.41 67.8548 165.041C67.6128 165.664 67.2535 166.211 66.7768 166.68C66.3075 167.142 65.7318 167.509 65.0498 167.78C64.3678 168.044 63.5868 168.176 62.7068 168.176C62.2008 168.176 61.7022 168.125 61.2108 168.022C60.7195 167.927 60.2465 167.787 59.7918 167.604C59.3445 167.421 58.9228 167.201 58.5268 166.944C58.1308 166.687 57.7788 166.401 57.4708 166.086L58.3398 164.667C58.4132 164.564 58.5085 164.48 58.6258 164.414C58.7432 164.341 58.8678 164.304 58.9998 164.304C59.1832 164.304 59.3812 164.381 59.5938 164.535C59.8065 164.682 60.0595 164.847 60.3528 165.03C60.6462 165.213 60.9872 165.382 61.3758 165.536C61.7718 165.683 62.2448 165.756 62.7948 165.756C63.6382 165.756 64.2908 165.558 64.7528 165.162C65.2148 164.759 65.4458 164.183 65.4458 163.435C65.4458 163.017 65.3395 162.676 65.1268 162.412C64.9215 162.148 64.6465 161.928 64.3018 161.752C63.9572 161.569 63.5648 161.415 63.1248 161.29C62.6848 161.165 62.2375 161.03 61.7828 160.883C61.3282 160.736 60.8808 160.56 60.4408 160.355C60.0008 160.15 59.6085 159.882 59.2638 159.552C58.9192 159.222 58.6405 158.811 58.4278 158.32C58.2225 157.821 58.1198 157.209 58.1198 156.483C58.1198 155.904 58.2335 155.339 58.4608 154.789C58.6955 154.239 59.0328 153.751 59.4728 153.326C59.9128 152.901 60.4555 152.56 61.1008 152.303C61.7462 152.046 62.4868 151.918 63.3228 151.918C64.2615 151.918 65.1268 152.065 65.9188 152.358C66.7108 152.651 67.3855 153.062 67.9428 153.59L67.2058 154.987ZM75.3321 156.538C76.1681 156.538 76.9271 156.674 77.6091 156.945C78.2984 157.216 78.8851 157.601 79.3691 158.1C79.8604 158.599 80.2381 159.207 80.5021 159.926C80.7661 160.645 80.8981 161.448 80.8981 162.335C80.8981 163.23 80.7661 164.036 80.5021 164.755C80.2381 165.474 79.8604 166.086 79.3691 166.592C78.8851 167.098 78.2984 167.487 77.6091 167.758C76.9271 168.029 76.1681 168.165 75.3321 168.165C74.4888 168.165 73.7224 168.029 73.0331 167.758C72.3438 167.487 71.7534 167.098 71.2621 166.592C70.7781 166.086 70.4004 165.474 70.1291 164.755C69.8651 164.036 69.7331 163.23 69.7331 162.335C69.7331 161.448 69.8651 160.645 70.1291 159.926C70.4004 159.207 70.7781 158.599 71.2621 158.1C71.7534 157.601 72.3438 157.216 73.0331 156.945C73.7224 156.674 74.4888 156.538 75.3321 156.538ZM75.3321 166.075C76.2708 166.075 76.9638 165.76 77.4111 165.129C77.8658 164.498 78.0931 163.574 78.0931 162.357C78.0931 161.14 77.8658 160.212 77.4111 159.574C76.9638 158.936 76.2708 158.617 75.3321 158.617C74.3788 158.617 73.6711 158.94 73.2091 159.585C72.7544 160.223 72.5271 161.147 72.5271 162.357C72.5271 163.567 72.7544 164.491 73.2091 165.129C73.6711 165.76 74.3788 166.075 75.3321 166.075ZM85.5339 158.672C85.8859 157.997 86.3039 157.469 86.7879 157.088C87.2719 156.699 87.8439 156.505 88.5039 156.505C89.0246 156.505 89.4426 156.619 89.7579 156.846L89.5819 158.881C89.5452 159.013 89.4902 159.108 89.4169 159.167C89.3509 159.218 89.2592 159.244 89.1419 159.244C89.0319 159.244 88.8669 159.226 88.6469 159.189C88.4342 159.152 88.2252 159.134 88.0199 159.134C87.7192 159.134 87.4516 159.178 87.2169 159.266C86.9822 159.354 86.7696 159.482 86.5789 159.651C86.3956 159.812 86.2306 160.01 86.0839 160.245C85.9446 160.48 85.8126 160.747 85.6879 161.048V168H82.9709V156.714H84.5659C84.8446 156.714 85.0389 156.765 85.1489 156.868C85.2589 156.963 85.3322 157.139 85.3689 157.396L85.5339 158.672ZM102.563 168H99.8459V158.749H94.6099V164.865C94.6099 165.217 94.6943 165.492 94.8629 165.69C95.0389 165.888 95.2773 165.987 95.5779 165.987C95.7466 165.987 95.8859 165.969 95.9959 165.932C96.1133 165.888 96.2123 165.844 96.2929 165.8C96.3809 165.756 96.4579 165.716 96.5239 165.679C96.5899 165.635 96.6559 165.613 96.7219 165.613C96.8026 165.613 96.8686 165.635 96.9199 165.679C96.9713 165.716 97.0263 165.774 97.0849 165.855L97.8989 167.175C97.5029 167.505 97.0483 167.754 96.5349 167.923C96.0216 168.092 95.4899 168.176 94.9399 168.176C93.9573 168.176 93.2019 167.901 92.6739 167.351C92.1533 166.794 91.8929 166.027 91.8929 165.052V158.749H90.7379C90.5913 158.749 90.4666 158.701 90.3639 158.606C90.2613 158.511 90.2099 158.368 90.2099 158.177V157.099L92.0249 156.791L92.5969 153.722C92.6336 153.575 92.7033 153.462 92.8059 153.381C92.9086 153.3 93.0406 153.26 93.2019 153.26H94.6099V156.813H102.563V168ZM103.036 153.381C103.036 153.616 102.988 153.839 102.893 154.052C102.798 154.257 102.669 154.437 102.508 154.591C102.354 154.745 102.167 154.87 101.947 154.965C101.734 155.053 101.507 155.097 101.265 155.097C101.03 155.097 100.81 155.053 100.605 154.965C100.4 154.87 100.22 154.745 100.066 154.591C99.9119 154.437 99.7873 154.257 99.6919 154.052C99.6039 153.839 99.5599 153.616 99.5599 153.381C99.5599 153.139 99.6039 152.915 99.6919 152.71C99.7873 152.497 99.9119 152.314 100.066 152.16C100.22 151.999 100.4 151.874 100.605 151.786C100.81 151.691 101.03 151.643 101.265 151.643C101.507 151.643 101.734 151.691 101.947 151.786C102.167 151.874 102.354 151.999 102.508 152.16C102.669 152.314 102.798 152.497 102.893 152.71C102.988 152.915 103.036 153.139 103.036 153.381ZM107.877 158.1C108.104 157.873 108.343 157.664 108.592 157.473C108.849 157.275 109.116 157.11 109.395 156.978C109.681 156.839 109.985 156.732 110.308 156.659C110.631 156.578 110.983 156.538 111.364 156.538C111.98 156.538 112.526 156.644 113.003 156.857C113.48 157.062 113.876 157.356 114.191 157.737C114.514 158.111 114.756 158.562 114.917 159.09C115.086 159.611 115.17 160.186 115.17 160.817V168H112.453V160.817C112.453 160.128 112.295 159.596 111.98 159.222C111.665 158.841 111.184 158.65 110.539 158.65C110.07 158.65 109.63 158.756 109.219 158.969C108.808 159.182 108.42 159.471 108.053 159.838V168H105.336V156.714H106.997C107.349 156.714 107.58 156.879 107.69 157.209L107.877 158.1ZM121.879 162.082C122.216 162.082 122.51 162.038 122.759 161.95C123.008 161.855 123.214 161.726 123.375 161.565C123.544 161.404 123.668 161.209 123.749 160.982C123.837 160.755 123.881 160.505 123.881 160.234C123.881 159.677 123.712 159.237 123.375 158.914C123.045 158.584 122.546 158.419 121.879 158.419C121.212 158.419 120.709 158.584 120.372 158.914C120.042 159.237 119.877 159.677 119.877 160.234C119.877 160.498 119.917 160.744 119.998 160.971C120.086 161.198 120.211 161.396 120.372 161.565C120.541 161.726 120.75 161.855 120.999 161.95C121.256 162.038 121.549 162.082 121.879 162.082ZM124.948 168.506C124.948 168.286 124.882 168.106 124.75 167.967C124.618 167.828 124.438 167.721 124.211 167.648C123.984 167.567 123.716 167.509 123.408 167.472C123.107 167.435 122.785 167.41 122.44 167.395C122.103 167.373 121.751 167.355 121.384 167.34C121.025 167.325 120.673 167.296 120.328 167.252C120.027 167.421 119.782 167.619 119.591 167.846C119.408 168.073 119.316 168.337 119.316 168.638C119.316 168.836 119.364 169.019 119.459 169.188C119.562 169.364 119.719 169.514 119.932 169.639C120.152 169.764 120.434 169.859 120.779 169.925C121.124 169.998 121.545 170.035 122.044 170.035C122.55 170.035 122.986 169.995 123.353 169.914C123.72 169.841 124.02 169.734 124.255 169.595C124.497 169.463 124.673 169.302 124.783 169.111C124.893 168.928 124.948 168.726 124.948 168.506ZM127.654 157.099V158.111C127.654 158.434 127.46 158.632 127.071 158.705L126.059 158.892C126.213 159.281 126.29 159.706 126.29 160.168C126.29 160.725 126.176 161.231 125.949 161.686C125.729 162.133 125.421 162.515 125.025 162.83C124.629 163.145 124.16 163.391 123.617 163.567C123.082 163.736 122.502 163.82 121.879 163.82C121.659 163.82 121.446 163.809 121.241 163.787C121.036 163.765 120.834 163.736 120.636 163.699C120.284 163.912 120.108 164.15 120.108 164.414C120.108 164.641 120.211 164.81 120.416 164.92C120.629 165.023 120.907 165.096 121.252 165.14C121.597 165.184 121.989 165.213 122.429 165.228C122.869 165.235 123.32 165.257 123.782 165.294C124.244 165.331 124.695 165.397 125.135 165.492C125.575 165.58 125.967 165.723 126.312 165.921C126.657 166.119 126.932 166.39 127.137 166.735C127.35 167.072 127.456 167.509 127.456 168.044C127.456 168.543 127.331 169.027 127.082 169.496C126.84 169.965 126.484 170.383 126.015 170.75C125.553 171.117 124.981 171.41 124.299 171.63C123.624 171.857 122.854 171.971 121.989 171.971C121.138 171.971 120.398 171.887 119.767 171.718C119.136 171.557 118.612 171.337 118.194 171.058C117.776 170.787 117.464 170.471 117.259 170.112C117.054 169.753 116.951 169.379 116.951 168.99C116.951 168.462 117.109 168.022 117.424 167.67C117.747 167.311 118.187 167.025 118.744 166.812C118.443 166.658 118.205 166.453 118.029 166.196C117.853 165.939 117.765 165.602 117.765 165.184C117.765 165.015 117.794 164.843 117.853 164.667C117.919 164.484 118.011 164.304 118.128 164.128C118.253 163.952 118.407 163.787 118.59 163.633C118.773 163.472 118.99 163.329 119.239 163.204C118.667 162.896 118.216 162.485 117.886 161.972C117.563 161.459 117.402 160.857 117.402 160.168C117.402 159.611 117.512 159.108 117.732 158.661C117.959 158.206 118.271 157.821 118.667 157.506C119.07 157.183 119.543 156.938 120.086 156.769C120.636 156.6 121.234 156.516 121.879 156.516C122.363 156.516 122.818 156.567 123.243 156.67C123.668 156.765 124.057 156.908 124.409 157.099H127.654ZM43.0873 182.714L38.6103 194H36.1463L31.6693 182.714H33.9133C34.1186 182.714 34.2873 182.762 34.4193 182.857C34.5586 182.952 34.6503 183.073 34.6943 183.22L36.8723 189.248C36.9896 189.6 37.0923 189.945 37.1803 190.282C37.2683 190.619 37.3453 190.957 37.4113 191.294C37.4846 190.957 37.5653 190.619 37.6533 190.282C37.7413 189.945 37.8476 189.6 37.9723 189.248L40.1943 183.22C40.2456 183.073 40.3373 182.952 40.4693 182.857C40.6013 182.762 40.759 182.714 40.9423 182.714H43.0873ZM47.3514 182.714V194H44.6234V182.714H47.3514ZM47.7254 179.425C47.7254 179.66 47.6777 179.88 47.5824 180.085C47.487 180.29 47.3587 180.47 47.1974 180.624C47.0434 180.778 46.86 180.903 46.6474 180.998C46.4347 181.086 46.2074 181.13 45.9654 181.13C45.7307 181.13 45.507 181.086 45.2944 180.998C45.089 180.903 44.9094 180.778 44.7554 180.624C44.6014 180.47 44.4767 180.29 44.3814 180.085C44.2934 179.88 44.2494 179.66 44.2494 179.425C44.2494 179.183 44.2934 178.956 44.3814 178.743C44.4767 178.53 44.6014 178.347 44.7554 178.193C44.9094 178.039 45.089 177.918 45.2944 177.83C45.507 177.735 45.7307 177.687 45.9654 177.687C46.2074 177.687 46.4347 177.735 46.6474 177.83C46.86 177.918 47.0434 178.039 47.1974 178.193C47.3587 178.347 47.487 178.53 47.5824 178.743C47.6777 178.956 47.7254 179.183 47.7254 179.425ZM57.0073 184.914C56.934 185.031 56.857 185.116 56.7763 185.167C56.6956 185.211 56.593 185.233 56.4683 185.233C56.3363 185.233 56.1933 185.196 56.0393 185.123C55.8926 185.05 55.7203 184.969 55.5223 184.881C55.3243 184.786 55.097 184.701 54.8403 184.628C54.591 184.555 54.294 184.518 53.9493 184.518C53.414 184.518 52.9923 184.632 52.6843 184.859C52.3836 185.086 52.2333 185.383 52.2333 185.75C52.2333 185.992 52.3103 186.197 52.4643 186.366C52.6256 186.527 52.8346 186.67 53.0913 186.795C53.3553 186.92 53.6523 187.033 53.9823 187.136C54.3123 187.231 54.646 187.338 54.9833 187.455C55.328 187.572 55.6653 187.708 55.9953 187.862C56.3253 188.009 56.6186 188.199 56.8753 188.434C57.1393 188.661 57.3483 188.936 57.5023 189.259C57.6636 189.582 57.7443 189.97 57.7443 190.425C57.7443 190.968 57.6453 191.47 57.4473 191.932C57.2566 192.387 56.9706 192.783 56.5893 193.12C56.208 193.45 55.735 193.71 55.1703 193.901C54.613 194.084 53.9676 194.176 53.2343 194.176C52.8456 194.176 52.4643 194.139 52.0903 194.066C51.7236 194 51.368 193.905 51.0233 193.78C50.686 193.655 50.3706 193.509 50.0773 193.34C49.7913 193.171 49.5383 192.988 49.3183 192.79L49.9453 191.756C50.026 191.631 50.1213 191.536 50.2313 191.47C50.3413 191.404 50.4806 191.371 50.6493 191.371C50.818 191.371 50.9756 191.419 51.1223 191.514C51.2763 191.609 51.4523 191.712 51.6503 191.822C51.8483 191.932 52.0793 192.035 52.3433 192.13C52.6146 192.225 52.9556 192.273 53.3663 192.273C53.689 192.273 53.964 192.236 54.1913 192.163C54.426 192.082 54.6166 191.98 54.7633 191.855C54.9173 191.73 55.0273 191.587 55.0933 191.426C55.1666 191.257 55.2033 191.085 55.2033 190.909C55.2033 190.645 55.1226 190.429 54.9613 190.26C54.8073 190.091 54.5983 189.945 54.3343 189.82C54.0776 189.695 53.7806 189.585 53.4433 189.49C53.1133 189.387 52.7723 189.277 52.4203 189.16C52.0756 189.043 51.7346 188.907 51.3973 188.753C51.0673 188.592 50.7703 188.39 50.5063 188.148C50.2496 187.906 50.0406 187.609 49.8793 187.257C49.7253 186.905 49.6483 186.48 49.6483 185.981C49.6483 185.519 49.74 185.079 49.9233 184.661C50.1066 184.243 50.3743 183.88 50.7263 183.572C51.0856 183.257 51.5293 183.007 52.0573 182.824C52.5926 182.633 53.2086 182.538 53.9053 182.538C54.6826 182.538 55.3903 182.666 56.0283 182.923C56.6663 183.18 57.198 183.517 57.6233 183.935L57.0073 184.914ZM69.5133 182.714V194H67.8523C67.4929 194 67.2656 193.835 67.1703 193.505L66.9833 192.603C66.5213 193.072 66.0116 193.454 65.4543 193.747C64.8969 194.033 64.2406 194.176 63.4853 194.176C62.8693 194.176 62.3229 194.073 61.8463 193.868C61.3769 193.655 60.9809 193.358 60.6583 192.977C60.3356 192.596 60.0899 192.145 59.9213 191.624C59.7599 191.096 59.6793 190.517 59.6793 189.886V182.714H62.3963V189.886C62.3963 190.575 62.5539 191.111 62.8693 191.492C63.1919 191.866 63.6723 192.053 64.3103 192.053C64.7796 192.053 65.2196 191.95 65.6303 191.745C66.0409 191.532 66.4296 191.243 66.7963 190.876V182.714H69.5133ZM78.1692 189.182C77.3846 189.219 76.7246 189.288 76.1892 189.391C75.6539 189.486 75.2249 189.611 74.9022 189.765C74.5796 189.919 74.3486 190.099 74.2092 190.304C74.0699 190.509 74.0002 190.733 74.0002 190.975C74.0002 191.452 74.1396 191.793 74.4182 191.998C74.7042 192.203 75.0746 192.306 75.5292 192.306C76.0866 192.306 76.5669 192.207 76.9702 192.009C77.3809 191.804 77.7806 191.496 78.1692 191.085V189.182ZM71.9432 184.287C73.2412 183.099 74.8032 182.505 76.6292 182.505C77.2892 182.505 77.8796 182.615 78.4002 182.835C78.9209 183.048 79.3609 183.348 79.7202 183.737C80.0796 184.118 80.3509 184.577 80.5342 185.112C80.7249 185.647 80.8202 186.234 80.8202 186.872V194H79.5882C79.3316 194 79.1336 193.963 78.9942 193.89C78.8549 193.809 78.7449 193.652 78.6642 193.417L78.4222 192.603C78.1362 192.86 77.8576 193.087 77.5862 193.285C77.3149 193.476 77.0326 193.637 76.7392 193.769C76.4459 193.901 76.1306 194 75.7932 194.066C75.4632 194.139 75.0966 194.176 74.6932 194.176C74.2166 194.176 73.7766 194.114 73.3732 193.989C72.9699 193.857 72.6216 193.663 72.3282 193.406C72.0349 193.149 71.8076 192.83 71.6462 192.449C71.4849 192.068 71.4042 191.624 71.4042 191.118C71.4042 190.832 71.4519 190.55 71.5472 190.271C71.6426 189.985 71.7966 189.714 72.0092 189.457C72.2292 189.2 72.5116 188.958 72.8562 188.731C73.2009 188.504 73.6226 188.306 74.1212 188.137C74.6272 187.968 75.2139 187.833 75.8812 187.73C76.5486 187.62 77.3112 187.554 78.1692 187.532V186.872C78.1692 186.117 78.0079 185.559 77.6852 185.2C77.3626 184.833 76.8969 184.65 76.2882 184.65C75.8482 184.65 75.4816 184.701 75.1882 184.804C74.9022 184.907 74.6492 185.024 74.4292 185.156C74.2092 185.281 74.0076 185.394 73.8242 185.497C73.6482 185.6 73.4502 185.651 73.2302 185.651C73.0396 185.651 72.8782 185.603 72.7462 185.508C72.6142 185.405 72.5079 185.288 72.4272 185.156L71.9432 184.287ZM86.1291 177.654V194H83.4121V177.654H86.1291ZM91.6521 182.714V194H88.9241V182.714H91.6521ZM92.0261 179.425C92.0261 179.66 91.9785 179.88 91.8831 180.085C91.7878 180.29 91.6595 180.47 91.4981 180.624C91.3441 180.778 91.1608 180.903 90.9481 180.998C90.7355 181.086 90.5081 181.13 90.2661 181.13C90.0315 181.13 89.8078 181.086 89.5951 180.998C89.3898 180.903 89.2101 180.778 89.0561 180.624C88.9021 180.47 88.7775 180.29 88.6821 180.085C88.5941 179.88 88.5501 179.66 88.5501 179.425C88.5501 179.183 88.5941 178.956 88.6821 178.743C88.7775 178.53 88.9021 178.347 89.0561 178.193C89.2101 178.039 89.3898 177.918 89.5951 177.83C89.8078 177.735 90.0315 177.687 90.2661 177.687C90.5081 177.687 90.7355 177.735 90.9481 177.83C91.1608 177.918 91.3441 178.039 91.4981 178.193C91.6595 178.347 91.7878 178.53 91.8831 178.743C91.9785 178.956 92.0261 179.183 92.0261 179.425ZM102.529 183.836C102.529 184.027 102.496 184.214 102.43 184.397C102.364 184.58 102.276 184.731 102.166 184.848L96.8091 191.91H102.364V194H93.6521V192.867C93.6521 192.742 93.6814 192.596 93.7401 192.427C93.7987 192.251 93.8867 192.086 94.0041 191.932L99.4161 184.793H93.9711V182.714H102.529V183.836ZM110.503 189.182C109.719 189.219 109.059 189.288 108.523 189.391C107.988 189.486 107.559 189.611 107.236 189.765C106.914 189.919 106.683 190.099 106.543 190.304C106.404 190.509 106.334 190.733 106.334 190.975C106.334 191.452 106.474 191.793 106.752 191.998C107.038 192.203 107.409 192.306 107.863 192.306C108.421 192.306 108.901 192.207 109.304 192.009C109.715 191.804 110.115 191.496 110.503 191.085V189.182ZM104.277 184.287C105.575 183.099 107.137 182.505 108.963 182.505C109.623 182.505 110.214 182.615 110.734 182.835C111.255 183.048 111.695 183.348 112.054 183.737C112.414 184.118 112.685 184.577 112.868 185.112C113.059 185.647 113.154 186.234 113.154 186.872V194H111.922C111.666 194 111.468 193.963 111.328 193.89C111.189 193.809 111.079 193.652 110.998 193.417L110.756 192.603C110.47 192.86 110.192 193.087 109.92 193.285C109.649 193.476 109.367 193.637 109.073 193.769C108.78 193.901 108.465 194 108.127 194.066C107.797 194.139 107.431 194.176 107.027 194.176C106.551 194.176 106.111 194.114 105.707 193.989C105.304 193.857 104.956 193.663 104.662 193.406C104.369 193.149 104.142 192.83 103.98 192.449C103.819 192.068 103.738 191.624 103.738 191.118C103.738 190.832 103.786 190.55 103.881 190.271C103.977 189.985 104.131 189.714 104.343 189.457C104.563 189.2 104.846 188.958 105.19 188.731C105.535 188.504 105.957 188.306 106.455 188.137C106.961 187.968 107.548 187.833 108.215 187.73C108.883 187.62 109.645 187.554 110.503 187.532V186.872C110.503 186.117 110.342 185.559 110.019 185.2C109.697 184.833 109.231 184.65 108.622 184.65C108.182 184.65 107.816 184.701 107.522 184.804C107.236 184.907 106.983 185.024 106.763 185.156C106.543 185.281 106.342 185.394 106.158 185.497C105.982 185.6 105.784 185.651 105.564 185.651C105.374 185.651 105.212 185.603 105.08 185.508C104.948 185.405 104.842 185.288 104.761 185.156L104.277 184.287ZM126.948 194H124.231V184.749H118.995V190.865C118.995 191.217 119.079 191.492 119.248 191.69C119.424 191.888 119.662 191.987 119.963 191.987C120.131 191.987 120.271 191.969 120.381 191.932C120.498 191.888 120.597 191.844 120.678 191.8C120.766 191.756 120.843 191.716 120.909 191.679C120.975 191.635 121.041 191.613 121.107 191.613C121.187 191.613 121.253 191.635 121.305 191.679C121.356 191.716 121.411 191.774 121.47 191.855L122.284 193.175C121.888 193.505 121.433 193.754 120.92 193.923C120.406 194.092 119.875 194.176 119.325 194.176C118.342 194.176 117.587 193.901 117.059 193.351C116.538 192.794 116.278 192.027 116.278 191.052V184.749H115.123C114.976 184.749 114.851 184.701 114.749 184.606C114.646 184.511 114.595 184.368 114.595 184.177V183.099L116.41 182.791L116.982 179.722C117.018 179.575 117.088 179.462 117.191 179.381C117.293 179.3 117.425 179.26 117.587 179.26H118.995V182.813H126.948V194ZM127.421 179.381C127.421 179.616 127.373 179.839 127.278 180.052C127.182 180.257 127.054 180.437 126.893 180.591C126.739 180.745 126.552 180.87 126.332 180.965C126.119 181.053 125.892 181.097 125.65 181.097C125.415 181.097 125.195 181.053 124.99 180.965C124.784 180.87 124.605 180.745 124.451 180.591C124.297 180.437 124.172 180.257 124.077 180.052C123.989 179.839 123.945 179.616 123.945 179.381C123.945 179.139 123.989 178.915 124.077 178.71C124.172 178.497 124.297 178.314 124.451 178.16C124.605 177.999 124.784 177.874 124.99 177.786C125.195 177.691 125.415 177.643 125.65 177.643C125.892 177.643 126.119 177.691 126.332 177.786C126.552 177.874 126.739 177.999 126.893 178.16C127.054 178.314 127.182 178.497 127.278 178.71C127.373 178.915 127.421 179.139 127.421 179.381ZM134.715 182.538C135.551 182.538 136.31 182.674 136.992 182.945C137.681 183.216 138.268 183.601 138.752 184.1C139.243 184.599 139.621 185.207 139.885 185.926C140.149 186.645 140.281 187.448 140.281 188.335C140.281 189.23 140.149 190.036 139.885 190.755C139.621 191.474 139.243 192.086 138.752 192.592C138.268 193.098 137.681 193.487 136.992 193.758C136.31 194.029 135.551 194.165 134.715 194.165C133.872 194.165 133.105 194.029 132.416 193.758C131.727 193.487 131.136 193.098 130.645 192.592C130.161 192.086 129.783 191.474 129.512 190.755C129.248 190.036 129.116 189.23 129.116 188.335C129.116 187.448 129.248 186.645 129.512 185.926C129.783 185.207 130.161 184.599 130.645 184.1C131.136 183.601 131.727 183.216 132.416 182.945C133.105 182.674 133.872 182.538 134.715 182.538ZM134.715 192.075C135.654 192.075 136.347 191.76 136.794 191.129C137.249 190.498 137.476 189.574 137.476 188.357C137.476 187.14 137.249 186.212 136.794 185.574C136.347 184.936 135.654 184.617 134.715 184.617C133.762 184.617 133.054 184.94 132.592 185.585C132.137 186.223 131.91 187.147 131.91 188.357C131.91 189.567 132.137 190.491 132.592 191.129C133.054 191.76 133.762 192.075 134.715 192.075ZM144.895 184.1C145.122 183.873 145.36 183.664 145.61 183.473C145.866 183.275 146.134 183.11 146.413 182.978C146.699 182.839 147.003 182.732 147.326 182.659C147.648 182.578 148 182.538 148.382 182.538C148.998 182.538 149.544 182.644 150.021 182.857C150.497 183.062 150.893 183.356 151.209 183.737C151.531 184.111 151.773 184.562 151.935 185.09C152.103 185.611 152.188 186.186 152.188 186.817V194H149.471V186.817C149.471 186.128 149.313 185.596 148.998 185.222C148.682 184.841 148.202 184.65 147.557 184.65C147.087 184.65 146.647 184.756 146.237 184.969C145.826 185.182 145.437 185.471 145.071 185.838V194H142.354V182.714H144.015C144.367 182.714 144.598 182.879 144.708 183.209L144.895 184.1Z" fill="#DBDBDB"/>
</g>
<g filter="url(#filter1_f)">
<rect x="4" width="180" height="208" fill="white" fill-opacity="0.12"/>
</g>
<defs>
<filter id="filter0_b" x="27.6694" y="147.643" width="128.518" height="50.533" filterUnits="userSpaceOnUse" color-interpolation-filters="sRGB">
<feFlood flood-opacity="0" result="BackgroundImageFix"/>
<feGaussianBlur in="BackgroundImage" stdDeviation="2"/>
<feComposite in2="SourceAlpha" operator="in" result="effect1_backgroundBlur"/>
<feBlend mode="normal" in="SourceGraphic" in2="effect1_backgroundBlur" result="shape"/>
</filter>
<filter id="filter1_f" x="0" y="-4" width="188" height="216" filterUnits="userSpaceOnUse" color-interpolation-filters="sRGB">
<feFlood flood-opacity="0" result="BackgroundImageFix"/>
<feBlend mode="normal" in="SourceGraphic" in2="BackgroundImageFix" result="shape"/>
<feGaussianBlur stdDeviation="2" result="effect1_foregroundBlur"/>
</filter>
</defs>
</svg>
